<?xml version="1.0" encoding="UTF-8" standalone="no"?>
<svg
   width="30mm"
   height="30mm"
   viewBox="0 0 30 29.999999"
   version="1.1"
   id="svg11"
   sodipodi:docname="upgradable.svg"
   inkscape:version="1.4.3 (0d15f75, 2025-12-25)"
   xmlns:inkscape="http://www.inkscape.org/namespaces/inkscape"
   xmlns:sodipodi="http://sodipodi.sourceforge.net/DTD/sodipodi-0.dtd"
   xmlns:xlink="http://www.w3.org/1999/xlink"
   xmlns="http://www.w3.org/2000/svg"
   xmlns:svg="http://www.w3.org/2000/svg">
  <sodipodi:namedview
     id="namedview11"
     pagecolor="#ffffff"
     bordercolor="#666666"
     borderopacity="1.0"
     inkscape:showpageshadow="2"
     inkscape:pageopacity="0.0"
     inkscape:pagecheckerboard="0"
     inkscape:deskcolor="#d1d1d1"
     inkscape:document-units="mm"
     showgrid="false"
     inkscape:zoom="6.3449363"
     inkscape:cx="30.181548"
     inkscape:cy="55.634916"
     inkscape:window-width="1920"
     inkscape:window-height="1057"
     inkscape:window-x="-8"
     inkscape:window-y="-8"
     inkscape:window-maximized="1"
     inkscape:current-layer="svg11" />
  <defs
     id="defs10">
    <linearGradient
       id="linearGradient54"
       inkscape:collect="always">
      <stop
         style="stop-color:#2ec27e;stop-opacity:1;"
         offset="0"
         id="stop54" />
      <stop
         style="stop-color:#2ea34e;stop-opacity:1;"
         offset="1"
         id="stop55" />
    </linearGradient>
    <linearGradient
       id="swatch49"
       inkscape:swatch="solid">
      <stop
         style="stop-color:#3584e4;stop-opacity:1;"
         offset="0"
         id="stop49" />
    </linearGradient>
    <linearGradient
       id="linearGradient36"
       x1="0"
       y1="0"
       x2="0"
       y2="1">
      <stop
         offset="0%"
         stop-color="#7CFF9A"
         id="stop34" />
      <stop
         offset="0.62222224"
         stop-color="#26A269"
         id="stop35" />
      <stop
         offset="100%"
         stop-color="#0B5A2A"
         id="stop36" />
    </linearGradient>
    <linearGradient
       id="linearGradient18"
       inkscape:collect="always">
      <stop
         style="stop-color:#3584e4;stop-opacity:1;"
         offset="0.32323232"
         id="stop18" />
      <stop
         style="stop-color:#3584e4;stop-opacity:0;"
         offset="1"
         id="stop19" />
    </linearGradient>
    <!-- Dégradé 3D + perspective pour l'engrenage -->
    <radialGradient
       id="gear3d"
       cx="301.95889"
       cy="149.50755"
       r="22.277929"
       gradientTransform="matrix(1.0003712,0,0,0.99962895,-288.24701,-141.20895)"
       fx="301.95889"
       fy="149.50755"
       gradientUnits="userSpaceOnUse">
      <stop
         offset="0"
         stop-color="#ffffff"
         stop-opacity="0.9"
         id="stop1"
         style="stop-color:#ffffff;stop-opacity:1;" />
      <stop
         offset="0.34999999"
         stop-color="#9be8f5"
         stop-opacity="0.7"
         id="stop2"
         style="stop-color:#9be8f5;stop-opacity:1;" />
      <stop
         offset="100%"
         stop-color="#50cce6"
         stop-opacity="1"
         id="stop3" />
    </radialGradient>
    <!-- Ombre interne basse (perspective) -->
    <radialGradient
       id="innerDepth"
       cx="213.59575"
       cy="226.41559"
       r="7.6367531"
       gradientTransform="matrix(1.4142136,0,0,0.70710678,-288.24701,-141.20895)"
       fx="213.59575"
       fy="226.41559"
       gradientUnits="userSpaceOnUse">
      <stop
         offset="0%"
         stop-color="#000000"
         stop-opacity="0.35"
         id="stop4" />
      <stop
         offset="100%"
         stop-color="#000000"
         stop-opacity="0"
         id="stop5" />
    </radialGradient>
    <!-- Dégradé perspective pour la flèche -->
    <linearGradient
       id="arrow3d"
       x1="0"
       y1="0"
       x2="0"
       y2="1">
      <stop
         offset="0%"
         stop-color="#7CFF9A"
         id="stop6" />
      <stop
         offset="40%"
         stop-color="#26A269"
         id="stop7" />
      <stop
         offset="100%"
         stop-color="#0B5A2A"
         id="stop8" />
    </linearGradient>
    <!-- Reflet brillant haut -->
    <linearGradient
       id="shine"
       x1="195.38"
       y1="219.75"
       x2="195.38"
       y2="231.75"
       gradientTransform="matrix(1.5,0,0,0.66666667,-288.24701,-141.20895)"
       gradientUnits="userSpaceOnUse">
      <stop
         offset="0%"
         stop-color="#ffffff"
         stop-opacity="0.6"
         id="stop9" />
      <stop
         offset="100%"
         stop-color="#ffffff"
         stop-opacity="0"
         id="stop10" />
    </linearGradient>
    <linearGradient
       inkscape:collect="always"
       xlink:href="#arrow3d"
       id="linearGradient13"
       x1="360.63367"
       y1="124.3142"
       x2="360.63367"
       y2="131.61304"
       gradientTransform="matrix(0.82922042,0,0,1.205952,-288.24701,-141.20895)"
       gradientUnits="userSpaceOnUse" />
    <linearGradient
       inkscape:collect="always"
       xlink:href="#arrow3d"
       id="linearGradient14"
       x1="147.02516"
       y1="326.50742"
       x2="147.02516"
       y2="327.73911"
       gradientTransform="matrix(2.045983,0,0,0.48876261,-288.24701,-141.20895)"
       gradientUnits="userSpaceOnUse" />
    <radialGradient
       id="gear3d-0"
       cx="301.95889"
       cy="149.50755"
       r="22.277929"
       gradientTransform="matrix(1.0003712,0,0,0.99962895,-260.38926,-137.75305)"
       fx="301.95889"
       fy="149.50755"
       gradientUnits="userSpaceOnUse">
      <stop
         offset="0%"
         stop-color="#ffffff"
         stop-opacity="0.9"
         id="stop1-9" />
      <stop
         offset="35%"
         stop-color="#9be8f5"
         stop-opacity="0.7"
         id="stop2-4" />
      <stop
         offset="100%"
         stop-color="#50cce6"
         stop-opacity="1"
         id="stop3-8" />
    </radialGradient>
    <radialGradient
       inkscape:collect="always"
       xlink:href="#linearGradient18"
       id="radialGradient19"
       cx="41.681709"
       cy="17.266417"
       fx="41.681709"
       fy="17.266417"
       r="13.82396"
       gradientTransform="matrix(1.4219121,-0.00284926,0.0025806,1.2878364,-17.630573,-4.851142)"
       gradientUnits="userSpaceOnUse" />
    <linearGradient
       inkscape:collect="always"
       xlink:href="#linearGradient54"
       id="linearGradient55"
       x1="39.921841"
       y1="16.889257"
       x2="45.061714"
       y2="18.511005"
       gradientUnits="userSpaceOnUse" />
    <linearGradient
       inkscape:collect="always"
       xlink:href="#linearGradient54"
       id="linearGradient56"
       x1="42.941711"
       y1="22.132566"
       x2="39.182209"
       y2="21.940905"
       gradientUnits="userSpaceOnUse" />
  </defs>
  <g
     id="g2"
     transform="translate(0.92604,1.039475)">
    <g
       id="g1"
       transform="translate(-27.357749,-3.155891)">
      <path
         id="path1-1"
         style="fill:url(#radialGradient19);stroke:none;stroke-width:0.2"
         d="M 41.069339,3.455891 40.569339,3.155891 39.041039,5.535871 37.598239,5.957031 36.382809,4.498211 35.882809,4.198211 35.188559,7.146621 33.976749,8.035971 32.335509,7.080481 31.092169,8.380661 32.118979,9.977461 31.284409,11.227511 29.415269,10.891611 28.691289,12.538021 30.202819,13.687831 29.845739,15.148201 27.357749,16.966421 27.857749,17.266421 29.671069,17.829691 29.835399,19.324171 28.191289,21.694301 28.691289,21.994301 30.588329,21.903861 31.253399,23.251581 30.592169,25.852181 31.092169,26.152181 32.843489,25.418381 33.929209,26.457591 33.273949,28.239391 34.269979,28.938301 34.769979,29.238301 36.164729,27.949491 37.540359,28.554621 37.034159,30.153211 37.534159,30.453211 39.281339,30.880061 40.151049,29.192311 41.651219,29.289971 41.794069,30.776941 42.294069,31.076941 44.082079,30.880061 44.322369,28.996971 45.765179,28.575811 46.480609,29.734111 46.980609,30.034111 48.593949,29.238301 48.175369,27.386211 49.387179,26.496861 51.028419,27.451841 52.271759,26.152181 51.244949,24.554861 52.079519,23.304811 53.948139,23.641221 54.672129,21.994301 53.161109,20.844491 53.517679,19.384641 55.388879,19.061141 55.505669,17.266421 55.005669,16.966421 53.692339,16.702631 53.528529,15.208661 55.175969,14.265051 54.672129,12.538021 54.172129,12.238021 52.775599,12.628981 52.110009,11.281251 53.335779,9.830701 52.271759,8.380661 51.771759,8.080661 50.520439,9.114461 49.434209,8.075251 50.089459,6.293441 48.093949,4.994541 47.199199,6.582831 45.823059,5.978221 45.829769,4.079111 45.329769,3.779111 43.212359,5.340011 41.712709,5.242351 Z M 41.681709,9.766101 C 45.824091,9.7659298 49.182196,13.124039 49.182019,17.266421 49.181909,21.4086 45.823888,24.766392 41.681709,24.766221 37.53973,24.766111 34.182019,21.4084 34.181909,17.266421 34.181732,13.124239 37.539527,9.7662115 41.681709,9.766101 Z"
         sodipodi:nodetypes="ccccccccccccccccccccccccccccccccccccccccccccccccccccccccccccccccccccccccccccccccccccc" />
      <path
         style="fill:url(#linearGradient55)"
         d="M 41.636749,12.163891 41.136749,11.863891 38.155539,15.874501 38.655539,16.174501 H 40.421839 L 39.921839,20.665931 40.421839,20.965931 H 42.941579 V 16.174501 H 44.707879 Z"
         id="path11-1"
         sodipodi:nodetypes="ccccccccccc" />
      <path
         id="rect11-5"
         style="fill:url(#linearGradient56)"
         d="M 40.421711,21.831566 42.441712,21.531566 42.764793,21.743107 V 22.345107 L 40.371375,22.343165 39.921713,22.133565 Z"
         sodipodi:nodetypes="ccccccc" />
    </g>
    <path
       id="path1"
       style="fill:url(#gear3d);stroke:none;stroke-width:0.2"
       d="M 13.21159,0 11.42359,0.19637 11.18329,2.07998 9.74049,2.50114 8.52506,1.04232 6.91223,1.83865 7.33081,3.69073 6.119,4.58008 4.47776,3.62459 3.23442,4.92477 4.26123,6.52157 3.42666,7.77162 1.55752,7.43572 0.83354,9.08213 2.34507,10.23194 1.98799,11.69231 0.1173,12.01529 0,13.81053 1.81332,14.3738 1.97765,15.86828 0.32969,16.8119 0.83354,18.53841 2.73058,18.44797 3.39565,19.79569 2.17041,21.24625 3.23442,22.69629 4.98574,21.96249 6.07146,23.0017 5.4162,24.7835 6.91223,25.78241 8.30698,24.4936 9.68261,25.09873 9.67641,26.99732 11.42359,27.42417 12.2933,25.73642 13.79347,25.83408 14.43632,27.62105 16.22433,27.42417 16.46462,25.54108 17.90743,25.11992 19.12286,26.57822 20.7362,25.78241 20.31762,23.93032 21.52943,23.04097 23.17067,23.99595 24.41401,22.69629 23.3872,21.09897 24.22177,19.84892 26.09039,20.18533 26.81438,18.53841 25.30336,17.3886 25.65993,15.92875 27.53113,15.60525 27.64792,13.81053 25.83459,13.24674 25.67078,11.75277 27.31822,10.80916 26.81438,9.08213 24.91785,9.17309 24.25226,7.82536 25.47803,6.37481 24.41401,4.92477 22.66269,5.65857 21.57646,4.61936 22.23171,2.83755 20.7362,1.83865 19.34145,3.12694 17.96531,2.52233 17.97202,0.62322 16.22433,0.19637 15.35461,1.88412 13.85496,1.78646 Z M 13.82396,6.31021 A 7.5,7.5 0 0 1 21.32427,13.81053 7.5,7.5 0 0 1 13.82396,21.31033 7.5,7.5 0 0 1 6.32416,13.81053 7.5,7.5 0 0 1 13.82396,6.31021 Z" />
    <ellipse
       cx="13.822997"
       cy="9.29105"
       rx="9"
       ry="4"
       fill="url(#shine)"
       opacity="0.5"
       id="ellipse11"
       style="fill:url(#shine)" />
    <path
       style="fill:url(#linearGradient13)"
       d="M 13.779,8.708 10.79779,12.71861 H 12.56409 V 17.51004 H 15.08383 V 12.71861 H 16.85013 Z"
       id="path11" />
    <rect
       x="12.563964"
       y="18.375675"
       width="2.52"
       height="0.602"
       fill="url(#arrow3d)"
       id="rect11"
       style="fill:url(#linearGradient14)" />
  </g>
</svg>
